<?xml version="1.0" encoding="UTF-8" standalone="no"?>
<svg
   xmlns:dc="http://purl.org/dc/elements/1.1/"
   xmlns:cc="http://creativecommons.org/ns#"
   xmlns:rdf="http://www.w3.org/1999/02/22-rdf-syntax-ns#"
   xmlns:svg="http://www.w3.org/2000/svg"
   xmlns="http://www.w3.org/2000/svg"
   width="2000"
   height="400"
   viewBox="0 0 529.16666 105.83334"
   version="1.1"
   id="svg8">
  <defs
     id="defs2">
    <rect
       x="25.702381"
       y="35.529762"
       width="198.81548"
       height="35.529762"
       id="rect12" />
  </defs>
  <metadata
     id="metadata5">
    <rdf:RDF>
      <cc:Work
         rdf:about="">
        <dc:format>image/svg+xml</dc:format>
        <dc:type
           rdf:resource="http://purl.org/dc/dcmitype/StillImage" />
        <dc:title></dc:title>
      </cc:Work>
    </rdf:RDF>
  </metadata>
  <g
     id="layer1">
    <g
       aria-label="PERSONAS"
       transform="matrix(7.3810087,0,0,7.3810087,-180.43713,-221.07098)"
       id="text10"
       style="font-style:normal;font-variant:normal;font-weight:normal;font-stretch:normal;font-size:10.5833px;line-height:6.61458px;font-family:Monoton;-inkscape-font-specification:'Monoton, Normal';font-variant-ligatures:normal;font-variant-caps:normal;font-variant-numeric:normal;font-variant-east-asian:normal;text-align:start;letter-spacing:0px;word-spacing:0px;writing-mode:lr-tb;white-space:pre;shape-inside:url(#rect12);fill:#ffffff;fill-opacity:1;stroke:none;stroke-width:0.135483">
      <path
         id="path46"
         style="font-style:normal;font-variant:normal;font-weight:normal;font-stretch:normal;font-size:10.5833px;font-family:Monoton;-inkscape-font-specification:'Monoton, Normal';font-variant-ligatures:normal;font-variant-caps:normal;font-variant-numeric:normal;font-variant-east-asian:normal;fill:#00ffcc;stroke-width:0.135483;fill-opacity:1"
         d="m 91.352656,36.190454 h -0.625283 q -0.397907,0 -0.573606,-0.201538 -0.175699,-0.206705 -0.175699,-0.542601 0,-0.744138 1.111039,-0.744138 1.043861,0 1.570959,0.310058 l -0.299723,0.227375 q -0.361733,-0.165364 -1.271236,-0.165364 -0.444416,0 -0.599444,0.09818 -0.149862,0.09819 -0.149862,0.273884 0,0.1757 0.08268,0.273885 0.08268,0.09819 0.30489,0.09819 h 0.640786 q 0.69763,0 1.255733,0.23771 0.563272,0.237711 0.925006,0.651121 0.361733,0.408243 0.552936,0.945676 0.191202,0.532266 0.191202,1.142046 0,0.496092 -0.139526,0.940508 -0.139526,0.444416 -0.423745,0.816485 -0.279052,0.372069 -0.67696,0.645953 -0.392739,0.268717 -0.940508,0.418578 -0.5426,0.155029 -1.178219,0.155029 -0.997352,0 -1.87068,-0.30489 -0.868162,-0.299723 -1.446936,-0.842324 l 0.299722,-0.222207 q 0.527098,0.475421 1.317745,0.73897 0.795815,0.258381 1.700149,0.258381 0.707965,0 1.276404,-0.201537 0.573607,-0.206705 0.940508,-0.563271 0.372069,-0.356567 0.568439,-0.826821 0.201538,-0.470254 0.201538,-1.012854 0,-0.718301 -0.289387,-1.297075 -0.289387,-0.583942 -0.883665,-0.945675 -0.589109,-0.361734 -1.395259,-0.361734 z m -0.625283,0.372069 h 0.58911 q 1.049028,0 1.638138,0.640786 0.594277,0.640785 0.594277,1.591629 0,0.966346 -0.687295,1.601964 -0.687294,0.63045 -1.927525,0.63045 -0.82682,0 -1.54512,-0.227375 -0.7183,-0.227376 -1.193722,-0.640786 l 0.289387,-0.232543 q 0.423746,0.346231 1.064531,0.537433 0.645954,0.191202 1.384924,0.191202 1.09037,0 1.663976,-0.52193 0.578774,-0.52193 0.578774,-1.338415 0,-0.80615 -0.485756,-1.333248 -0.48059,-0.527098 -1.379757,-0.527098 h -0.583942 q -0.754473,0 -1.13171,-0.41341 -0.377237,-0.41341 -0.377237,-1.074867 0,-0.661456 0.465087,-1.074866 0.470254,-0.41341 1.405594,-0.41341 0.656289,0 1.21956,0.155029 0.563271,0.149861 0.930173,0.43408 l -0.294555,0.227376 q -0.645953,-0.444416 -1.855178,-0.444416 -0.780311,0 -1.142045,0.310058 -0.356567,0.30489 -0.356567,0.806149 0,0.506428 0.263549,0.811318 0.268717,0.30489 0.873329,0.30489 z m 0,0.744138 h 0.568439 q 0.754474,0 1.131711,0.418578 0.377236,0.418578 0.377236,1.069699 0,0.661456 -0.470254,1.074866 -0.465086,0.41341 -1.400427,0.41341 -0.656288,0 -1.224727,-0.149861 -0.563271,-0.155029 -0.930173,-0.439248 l 0.294555,-0.227376 q 0.645953,0.444416 1.860345,0.444416 0.780312,0 1.136878,-0.30489 0.361734,-0.310058 0.361734,-0.811317 0,-0.50126 -0.268716,-0.80615 -0.268717,-0.310058 -0.873329,-0.310058 h -0.563272 q -1.059363,0 -1.658808,-0.63045 -0.594277,-0.635618 -0.594277,-1.601965 0,-0.966346 0.687294,-1.596796 0.687295,-0.635618 1.927525,-0.635618 0.826821,0 1.539953,0.227375 0.7183,0.227376 1.193722,0.640786 l -0.289387,0.232543 q -0.423746,-0.346231 -1.064531,-0.537433 -0.640786,-0.191202 -1.379757,-0.191202 -1.090369,0 -1.669143,0.52193 -0.573607,0.52193 -0.573607,1.338415 0,0.811318 0.485757,1.338416 0.485757,0.52193 1.395259,0.52193 z m 0,0.744138 h 0.568439 q 0.397908,0 0.573607,0.206705 0.175699,0.206705 0.175699,0.537434 0,0.744138 -1.11104,0.744138 -1.049028,0 -1.576126,-0.310058 l 0.299723,-0.227375 q 0.361734,0.165364 1.276403,0.165364 0.444416,0 0.594278,-0.09819 0.155028,-0.09819 0.155028,-0.273884 0,-0.170532 -0.08785,-0.268717 -0.08268,-0.103353 -0.310058,-0.103353 h -0.558104 q -0.713132,0 -1.291906,-0.232543 -0.573607,-0.232543 -0.945676,-0.640785 -0.366902,-0.408243 -0.563271,-0.945676 -0.19637,-0.537433 -0.19637,-1.157549 0,-0.496092 0.139526,-0.940508 0.139526,-0.444416 0.418578,-0.816485 0.284219,-0.372069 0.676959,-0.640785 0.397907,-0.273885 0.940508,-0.423746 0.547768,-0.155029 1.183386,-0.155029 0.997352,0 1.865514,0.30489 0.868161,0.299723 1.446935,0.842324 l -0.299722,0.222208 q -0.527098,-0.475422 -1.317745,-0.733803 -0.790647,-0.263549 -1.694982,-0.263549 -0.707965,0 -1.281571,0.206705 -0.568439,0.201537 -0.940508,0.558103 -0.366902,0.356567 -0.568439,0.826821 -0.19637,0.470254 -0.19637,1.012854 0,0.728636 0.294555,1.312578 0.294554,0.583941 0.899167,0.940508 0.604612,0.351398 1.431432,0.351398 z m -9.33126,0.837156 0.149861,-0.372069 h 1.271236 l 0.149861,0.372069 z m -0.289388,0.744138 0.144694,-0.372069 h 1.855178 l 0.160196,0.372069 z m -0.289387,0.744138 0.144694,-0.372069 h 2.43912 l 0.155029,0.372069 z m -3.023061,1.02319 h -0.403075 l 3.384795,-8.557589 h 0.403075 l 3.379628,8.557589 h -0.397907 l -3.183258,-8.05633 z m 3.229766,-7.172665 0.211873,0.475421 -2.645825,6.697244 h -0.397907 z m 0.413411,0.981849 0.196369,0.511595 -2.237582,5.679221 h -0.403075 z m 0.392739,1.02319 0.19637,0.52193 -1.834507,4.645696 h -0.397908 z m 5.131454,5.167626 h -0.403075 l -3.379628,-8.557589 h 0.397907 z m -4.185778,-8.557589 3.384795,8.557589 h -0.397907 l -3.384795,-8.557589 z m -0.800982,0 3.384795,8.557589 H 84.956607 L 81.57698,32.841832 Z m -7.470911,4.438991 -0.372069,-0.614948 v -3.824043 h 0.372069 z m 0.744139,1.21956 -0.37207,-0.625283 v -5.033268 h 0.37207 z m 0.744138,1.235063 -0.372069,-0.630451 v -6.263163 h 0.372069 z m -5.332991,-2.775016 0.372069,0.614948 v 3.824043 h -0.372069 z m -0.744138,-1.21956 0.372069,0.625283 v 5.033268 h -0.372069 z m -0.744139,-1.235063 0.37207,0.630451 v 6.263163 h -0.37207 z m 0.129191,-1.663975 h 0.434081 l 5.260644,8.557589 H 74.56082 Z m 0.878497,0 h 0.439248 l 5.255476,8.557589 h -0.444416 z m 0.873329,0 h 0.43408 l 4.87824,7.952977 v -7.952977 h 0.372069 v 8.557589 q 0,0 -0.439248,0 z m -2.253086,0.604612 v 7.952977 h -0.372069 v -8.557589 q 0,0 0.444416,0 l 5.245141,8.557589 h -0.428913 z m -7.124679,2.227247 q -0.599445,0.599445 -0.599445,1.446936 0,0.84749 0.599445,1.446935 0.599444,0.599445 1.446935,0.599445 0.847491,0 1.446936,-0.599445 0.599444,-0.599445 0.599444,-1.446935 0,-0.847491 -0.599444,-1.446936 -0.599445,-0.599445 -1.446936,-0.599445 -0.847491,0 -1.446935,0.599445 z m -0.780312,2.387444 q -0.191202,-0.449584 -0.191202,-0.940508 0,-0.490925 0.191202,-0.935341 0.191202,-0.449583 0.516763,-0.775144 0.32556,-0.32556 0.769976,-0.516763 0.449584,-0.191202 0.940508,-0.191202 0.490925,0 0.935341,0.191202 0.449583,0.191203 0.775144,0.516763 0.32556,0.325561 0.516762,0.775144 0.191203,0.444416 0.191203,0.935341 0,0.490924 -0.191203,0.940508 -0.191202,0.444416 -0.516762,0.769976 -0.325561,0.32556 -0.775144,0.516763 -0.444416,0.191202 -0.935341,0.191202 -0.490924,0 -0.940508,-0.191202 -0.444416,-0.191203 -0.769976,-0.516763 -0.325561,-0.32556 -0.516763,-0.769976 z M 60.702723,35.7202 q -0.372069,0.640785 -0.372069,1.400427 0,0.759641 0.372069,1.400426 0.377237,0.640786 1.018022,1.018023 0.640786,0.372069 1.400427,0.372069 0.759641,0 1.400427,-0.372069 0.640786,-0.377237 1.012855,-1.018023 0.377237,-0.640785 0.377237,-1.400426 0,-0.759642 -0.377237,-1.400427 -0.372069,-0.640786 -1.012855,-1.012855 -0.640786,-0.377237 -1.400427,-0.377237 -0.759641,0 -1.400427,0.377237 -0.640785,0.372069 -1.018022,1.012855 z m -0.320393,2.986888 q -0.423745,-0.728635 -0.423745,-1.586461 0,-0.857827 0.423745,-1.586462 0.423745,-0.728635 1.152381,-1.152381 0.728635,-0.423745 1.586461,-0.423745 0.857826,0 1.586462,0.423745 0.728635,0.423746 1.15238,1.152381 0.423746,0.728635 0.423746,1.586462 0,0.857826 -0.423746,1.586461 -0.423745,0.728635 -1.15238,1.152381 -0.728636,0.423745 -1.586462,0.423745 -0.857826,0 -1.586461,-0.423745 -0.728636,-0.423746 -1.152381,-1.152381 z m -0.516763,-2.96105 q -0.279051,0.656288 -0.279051,1.374589 0,0.7183 0.279051,1.374588 0.279052,0.656289 0.749306,1.131711 0.475422,0.470254 1.131711,0.749305 0.656288,0.279052 1.374588,0.279052 0.7183,0 1.374589,-0.279052 0.656289,-0.279051 1.126543,-0.749305 0.475421,-0.475422 0.754473,-1.131711 0.279052,-0.656288 0.279052,-1.374588 0,-0.718301 -0.279052,-1.374589 -0.279052,-0.656289 -0.754473,-1.126543 -0.470254,-0.475421 -1.126543,-0.754473 -0.656289,-0.279052 -1.374589,-0.279052 -0.7183,0 -1.374588,0.279052 -0.656289,0.279052 -1.131711,0.754473 -0.470254,0.470254 -0.749306,1.126543 z m -0.12919,3.333119 q -0.521931,-0.899167 -0.521931,-1.95853 0,-1.059364 0.521931,-1.958531 0.527098,-0.899167 1.426265,-1.421097 0.899167,-0.527098 1.95853,-0.527098 1.059364,0 1.958531,0.527098 0.899167,0.52193 1.421097,1.421097 0.527098,0.899167 0.527098,1.958531 0,1.059363 -0.527098,1.95853 -0.52193,0.899167 -1.421097,1.426265 -0.899167,0.52193 -1.958531,0.52193 -1.059363,0 -1.95853,-0.52193 -0.899167,-0.527098 -1.426265,-1.426265 z m -0.558104,-3.617339 q -0.335896,0.790647 -0.335896,1.658809 0,0.868161 0.335896,1.663975 0.341063,0.790647 0.91467,1.364254 0.573607,0.573606 1.364253,0.91467 0.795815,0.335895 1.663976,0.335895 0.868162,0 1.658808,-0.335895 0.795815,-0.341064 1.369422,-0.91467 0.573606,-0.573607 0.909502,-1.364254 0.341063,-0.795814 0.341063,-1.663975 0,-0.868162 -0.341063,-1.658809 -0.335896,-0.795814 -0.909502,-1.369421 -0.573607,-0.573606 -1.369422,-0.909502 -0.790646,-0.341063 -1.658808,-0.341063 -0.868161,0 -1.663976,0.341063 -0.790646,0.335896 -1.364253,0.909502 -0.573607,0.573607 -0.91467,1.369421 z m -0.341063,3.467478 q -0.366902,-0.862994 -0.366902,-1.808669 0,-0.945676 0.366902,-1.803502 0.372069,-0.862994 0.992184,-1.483109 0.625283,-0.625283 1.483109,-0.992184 0.862994,-0.37207 1.808669,-0.37207 0.945676,0 1.803502,0.37207 0.862994,0.366901 1.483109,0.992184 0.625283,0.620115 0.992184,1.483109 0.372069,0.857826 0.372069,1.803502 0,0.945675 -0.372069,1.808669 -0.366901,0.857826 -0.992184,1.483109 -0.620115,0.620115 -1.483109,0.987016 -0.857826,0.37207 -1.803502,0.37207 -0.945675,0 -1.808669,-0.37207 -0.857826,-0.366901 -1.483109,-0.987016 -0.620115,-0.625283 -0.992184,-1.483109 z m -4.070613,-2.738842 h -0.625282 q -0.397908,0 -0.573607,-0.201538 -0.175699,-0.206705 -0.175699,-0.542601 0,-0.744138 1.111039,-0.744138 1.043861,0 1.570959,0.310058 l -0.299722,0.227375 q -0.361734,-0.165364 -1.271237,-0.165364 -0.444416,0 -0.599444,0.09818 -0.149862,0.09819 -0.149862,0.273884 0,0.1757 0.08268,0.273885 0.08268,0.09819 0.30489,0.09819 h 0.640785 q 0.69763,0 1.255734,0.23771 0.563271,0.237711 0.925005,0.651121 0.361734,0.408243 0.552936,0.945676 0.191202,0.532266 0.191202,1.142046 0,0.496092 -0.139526,0.940508 -0.139526,0.444416 -0.423745,0.816485 -0.279052,0.372069 -0.676959,0.645953 -0.39274,0.268717 -0.940509,0.418578 -0.5426,0.155029 -1.178218,0.155029 -0.997352,0 -1.870681,-0.30489 -0.868162,-0.299723 -1.446936,-0.842324 l 0.299723,-0.222207 q 0.527097,0.475421 1.317744,0.73897 0.795815,0.258381 1.70015,0.258381 0.707964,0 1.276403,-0.201537 0.573607,-0.206705 0.940508,-0.563271 0.37207,-0.356567 0.568439,-0.826821 0.201538,-0.470254 0.201538,-1.012854 0,-0.718301 -0.289387,-1.297075 -0.289387,-0.583942 -0.883664,-0.945675 -0.58911,-0.361734 -1.39526,-0.361734 z m -0.625282,0.372069 h 0.589109 q 1.049028,0 1.638138,0.640786 0.594277,0.640785 0.594277,1.591629 0,0.966346 -0.687295,1.601964 -0.687294,0.63045 -1.927524,0.63045 -0.826821,0 -1.545121,-0.227375 -0.7183,-0.227376 -1.193722,-0.640786 l 0.289387,-0.232543 q 0.423746,0.346231 1.064532,0.537433 0.645953,0.191202 1.384924,0.191202 1.090369,0 1.663975,-0.52193 0.578775,-0.52193 0.578775,-1.338415 0,-0.80615 -0.485757,-1.333248 -0.48059,-0.527098 -1.379757,-0.527098 h -0.583941 q -0.754474,0 -1.131711,-0.41341 -0.377237,-0.41341 -0.377237,-1.074867 0,-0.661456 0.465087,-1.074866 0.470254,-0.41341 1.405594,-0.41341 0.656289,0 1.21956,0.155029 0.563272,0.149861 0.930173,0.43408 l -0.294555,0.227376 q -0.645953,-0.444416 -1.855178,-0.444416 -0.780311,0 -1.142045,0.310058 -0.356566,0.30489 -0.356566,0.806149 0,0.506428 0.263549,0.811318 0.268716,0.30489 0.873329,0.30489 z m 0,0.744138 h 0.568438 q 0.754474,0 1.131711,0.418578 0.377236,0.418578 0.377236,1.069699 0,0.661456 -0.470254,1.074866 -0.465086,0.41341 -1.400426,0.41341 -0.656289,0 -1.224728,-0.149861 -0.563271,-0.155029 -0.930173,-0.439248 l 0.294555,-0.227376 q 0.645953,0.444416 1.860346,0.444416 0.780311,0 1.136877,-0.30489 0.361734,-0.310058 0.361734,-0.811317 0,-0.50126 -0.268716,-0.80615 -0.268717,-0.310058 -0.873329,-0.310058 h -0.563271 q -1.059364,0 -1.658809,-0.63045 -0.594277,-0.635618 -0.594277,-1.601965 0,-0.966346 0.687295,-1.596796 0.687294,-0.635618 1.927524,-0.635618 0.826821,0 1.539953,0.227375 0.7183,0.227376 1.193722,0.640786 l -0.289387,0.232543 Q 56.52359,33.968374 55.882805,33.777172 55.242019,33.58597 54.503048,33.58597 q -1.090369,0 -1.669143,0.52193 -0.573607,0.52193 -0.573607,1.338415 0,0.811318 0.485757,1.338416 0.485757,0.52193 1.39526,0.52193 z m 0,0.744138 h 0.568438 q 0.397908,0 0.573607,0.206705 0.175699,0.206705 0.175699,0.537434 0,0.744138 -1.111039,0.744138 -1.049029,0 -1.576127,-0.310058 l 0.299723,-0.227375 q 0.361734,0.165364 1.276404,0.165364 0.444415,0 0.594277,-0.09819 0.155028,-0.09819 0.155028,-0.273884 0,-0.170532 -0.08785,-0.268717 -0.08268,-0.103353 -0.310058,-0.103353 h -0.558103 q -0.713133,0 -1.291907,-0.232543 Q 52.2758,37.957777 51.903731,37.549535 51.53683,37.141292 51.34046,36.603859 51.14409,36.066426 51.14409,35.44631 q 0,-0.496092 0.139526,-0.940508 0.139526,-0.444416 0.418578,-0.816485 0.284219,-0.372069 0.676959,-0.640785 0.397907,-0.273885 0.940508,-0.423746 0.547768,-0.155029 1.183386,-0.155029 0.997352,0 1.865514,0.30489 0.868161,0.299723 1.446935,0.842324 l -0.299722,0.222208 q -0.527098,-0.475422 -1.317745,-0.733803 -0.790647,-0.263549 -1.694982,-0.263549 -0.707964,0 -1.281571,0.206705 -0.568439,0.201537 -0.940508,0.558103 -0.366902,0.356567 -0.568439,0.826821 -0.19637,0.470254 -0.19637,1.012854 0,0.728636 0.294555,1.312578 0.294555,0.583941 0.899167,0.940508 0.604612,0.351398 1.431433,0.351398 z m -9.088381,-0.909502 h 2.24275 q 0.511595,0 0.862994,-0.330728 0.356566,-0.330728 0.356566,-0.940508 0,-0.449584 -0.372069,-0.80615 -0.372069,-0.361734 -0.847491,-0.361734 h -3.193593 v 6.697244 h -0.372069 v -7.069313 h 3.565662 q 0.630451,0 1.11104,0.470254 0.480589,0.465087 0.480589,1.069699 0,0.744138 -0.465086,1.193722 -0.465087,0.449583 -1.126543,0.449583 h -2.24275 z m 0,0.744138 h 2.24275 q 0.80615,0 1.384924,-0.563271 0.578774,-0.568439 0.578774,-1.452103 0,-0.759641 -0.594277,-1.333248 -0.589109,-0.578774 -1.369421,-0.578774 h -3.937731 v 7.441382 h -0.37207 V 33.58597 h 4.309801 q 0.614948,0 1.152381,0.315225 0.542601,0.315225 0.862994,0.847491 0.320392,0.527098 0.320392,1.121375 0,1.018022 -0.692462,1.705317 -0.687294,0.682126 -1.643305,0.682126 h -2.24275 z m 0,0.744139 h 2.24275 q 0.723468,0 1.343583,-0.356567 0.620115,-0.356566 0.992184,-0.992184 0.37207,-0.640786 0.37207,-1.410762 0,-0.69763 -0.37207,-1.30741 -0.366901,-0.614947 -0.992184,-0.981849 -0.625283,-0.366901 -1.343583,-0.366901 h -4.68187 v 8.18552 h -0.372069 v -8.557589 h 5.053939 q 0.811318,0 1.52445,0.418577 0.713133,0.41341 1.13171,1.116208 0.423746,0.697629 0.423746,1.493444 0,0.919837 -0.397908,1.617467 -0.392739,0.69763 -1.069698,1.090369 l 0.961178,2.821524 h -0.392739 l -0.919838,-2.645824 q -0.206705,0.08268 -0.315225,0.113687 l 0.862994,2.532137 h -0.39274 l -0.842323,-2.444287 q -0.04651,0.01033 -0.330728,0.03617 l 0.800982,2.408114 h -0.39274 l -0.790647,-2.397775 h -0.335896 l 0.754474,2.397778 h -0.39274 l -0.759641,-2.397778 h -1.369421 z m -0.206705,2.769847 H 44.47416 v -6.325175 h 2.821524 q 0.346231,0 0.594277,0.237711 0.253214,0.232543 0.253214,0.558104 0,0.899167 -0.847491,0.899167 h -2.24275 v -0.372069 h 2.24275 q 0.222208,0 0.346231,-0.113688 0.129191,-0.118855 0.129191,-0.41341 0,-0.180867 -0.139526,-0.299723 -0.134358,-0.124023 -0.335896,-0.124023 h -2.449455 z m -7.961836,0 h -0.37207 v -8.557589 h 0.37207 z m -0.744139,0 h -0.372069 v -8.557589 h 0.372069 z m -0.744138,0 h -0.372069 v -8.557589 h 0.372069 z m 2.232415,-1.860345 h 3.958402 v 0.372069 h -3.958402 v 0.372069 h 3.958402 v 0.372069 h -3.958402 v 0.372069 h 3.958402 v 0.372069 h -4.330471 v -8.557589 h 4.330471 v 0.372069 h -3.958402 v 0.372069 h 3.958402 v 0.372069 h -3.958402 v 0.372069 h 3.958402 v 0.372069 h -3.958402 v 1.488277 h 2.030877 v 0.372069 h -2.030877 v 0.372069 h 2.030877 v 0.372069 h -2.030877 v 0.372069 h 2.030877 v 0.372069 h -2.030877 z m -8.550945,-2.191074 h 2.160068 q 0.532266,0 0.899167,-0.356566 0.372069,-0.361734 0.372069,-1.018023 0,-0.490924 -0.387572,-0.878496 -0.387572,-0.39274 -0.883664,-0.39274 h -3.193593 v 6.697244 h -0.372069 v -7.069313 h 3.565662 q 0.651121,0 1.147213,0.50126 0.496093,0.50126 0.496093,1.142045 0,0.790647 -0.48059,1.271237 -0.480589,0.475421 -1.162716,0.475421 h -2.160068 z m 0,0.744138 h 2.160068 q 0.537433,0 0.992185,-0.258381 0.459918,-0.263549 0.73897,-0.754473 0.28422,-0.490925 0.28422,-1.105873 0,-0.795814 -0.60978,-1.405594 -0.604613,-0.60978 -1.405595,-0.60978 h -3.937731 v 7.441382 H 26.927854 V 33.58597 h 4.3098 q 0.625283,0 1.178219,0.330728 0.552936,0.330728 0.878497,0.883664 0.330728,0.552936 0.330728,1.173051 0,0.702798 -0.330728,1.281572 -0.330728,0.573606 -0.878497,0.893999 -0.542601,0.315225 -1.178219,0.315225 h -2.160068 z m 0,0.744139 h 2.160068 q 0.552936,0 1.059364,-0.217041 0.506427,-0.222208 0.878496,-0.594277 0.377237,-0.377237 0.599445,-0.909502 0.222208,-0.537433 0.222208,-1.142046 0,-0.723467 -0.377237,-1.359085 -0.377237,-0.640786 -1.018022,-1.018023 -0.635618,-0.382404 -1.364254,-0.382404 h -4.68187 v 8.18552 h -0.372069 v -8.557589 h 5.053939 q 0.826821,0 1.550288,0.43408 0.723468,0.428913 1.152381,1.152381 0.428913,0.723468 0.428913,1.54512 0,0.733803 -0.253214,1.353919 -0.253213,0.614947 -0.682126,1.02319 -0.428913,0.408242 -0.997352,0.635618 -0.568439,0.222208 -1.19889,0.222208 h -2.160068 z m -0.289387,2.563142 H 28.41613 v -6.325175 h 2.821524 q 0.366902,0 0.630451,0.268717 0.268716,0.268717 0.268716,0.63045 0,1.00252 -0.899167,1.00252 h -2.160068 v -0.372069 h 2.160068 q 0.248046,0 0.387572,-0.139526 0.139526,-0.139526 0.139526,-0.490925 0,-0.227375 -0.155029,-0.377236 -0.149861,-0.149862 -0.372069,-0.149862 h -2.449455 z" />
    </g>
  </g>
</svg>
